<mxfile host="app.diagrams.net" agent="Mozilla/5.0 (Windows NT 10.0; Win64; x64) AppleWebKit/537.36 (KHTML, like Gecko) Chrome/131.0.0.0 Safari/537.36" version="24.8.6">
  <diagram name="Page-1" id="wXzkdsVspGv7vbjtEBtR">
    <mxGraphModel dx="4040" dy="1933" grid="0" gridSize="10" guides="1" tooltips="1" connect="1" arrows="1" fold="1" page="1" pageScale="1" pageWidth="2339" pageHeight="3300" math="0" shadow="0">
      <root>
        <mxCell id="0" />
        <mxCell id="1" parent="0" />
        <mxCell id="bgoYxC8r8oQt2_E12sds-1" value="Start" style="ellipse;whiteSpace=wrap;html=1;" vertex="1" parent="1">
          <mxGeometry x="1965" y="997" width="170" height="53" as="geometry" />
        </mxCell>
        <mxCell id="bgoYxC8r8oQt2_E12sds-2" value="&lt;span class=&quot;hljs-variable&quot;&gt;Login&lt;/span&gt;&lt;span class=&quot;hljs-operator&quot;&gt;/&lt;/span&gt;&lt;span class=&quot;hljs-built_in&quot;&gt;Sign&lt;/span&gt;&lt;span class=&quot;hljs-operator&quot;&gt;-&lt;/span&gt;&lt;span class=&quot;hljs-built_in&quot;&gt;Up&lt;/span&gt; &lt;span class=&quot;hljs-variable&quot;&gt;Page&lt;/span&gt;" style="rounded=0;whiteSpace=wrap;html=1;" vertex="1" parent="1">
          <mxGeometry x="1969" y="1080" width="170" height="50" as="geometry" />
        </mxCell>
        <mxCell id="bgoYxC8r8oQt2_E12sds-3" value="&lt;span class=&quot;hljs-variable&quot;&gt;User&lt;/span&gt; &lt;span class=&quot;hljs-variable&quot;&gt;Logged&lt;/span&gt; &lt;span class=&quot;hljs-built_in&quot;&gt;In&lt;/span&gt;&lt;span class=&quot;hljs-operator&quot;&gt;?&lt;/span&gt;" style="rhombus;whiteSpace=wrap;html=1;" vertex="1" parent="1">
          <mxGeometry x="1996.1799999999998" y="1162" width="115.63" height="104" as="geometry" />
        </mxCell>
        <mxCell id="bgoYxC8r8oQt2_E12sds-4" value="&lt;span class=&quot;hljs-built_in&quot;&gt;Enter&lt;/span&gt; &lt;span class=&quot;hljs-variable&quot;&gt;Ingredients&lt;/span&gt;" style="rounded=0;whiteSpace=wrap;html=1;" vertex="1" parent="1">
          <mxGeometry x="1870" y="1300" width="170" height="50" as="geometry" />
        </mxCell>
        <mxCell id="bgoYxC8r8oQt2_E12sds-5" value="&lt;span class=&quot;hljs-built_in&quot;&gt;Show&lt;/span&gt; &lt;span class=&quot;hljs-variable&quot;&gt;Login&lt;/span&gt;&lt;span class=&quot;hljs-operator&quot;&gt;/&lt;/span&gt;&lt;span class=&quot;hljs-built_in&quot;&gt;Sign&lt;/span&gt;&lt;span class=&quot;hljs-operator&quot;&gt;-&lt;/span&gt;&lt;span class=&quot;hljs-built_in&quot;&gt;Up&lt;/span&gt; &lt;span class=&quot;hljs-variable&quot;&gt;Page&lt;/span&gt;" style="rounded=0;whiteSpace=wrap;html=1;" vertex="1" parent="1">
          <mxGeometry x="2080" y="1300" width="170" height="50" as="geometry" />
        </mxCell>
        <mxCell id="bgoYxC8r8oQt2_E12sds-6" value="&lt;span class=&quot;hljs-variable&quot;&gt;Validate&lt;/span&gt;" style="rounded=0;whiteSpace=wrap;html=1;" vertex="1" parent="1">
          <mxGeometry x="1870" y="1393" width="170" height="50" as="geometry" />
        </mxCell>
        <mxCell id="bgoYxC8r8oQt2_E12sds-7" value="&amp;nbsp;&lt;span class=&quot;hljs-variable&quot;&gt;Valid&lt;/span&gt;" style="rhombus;whiteSpace=wrap;html=1;" vertex="1" parent="1">
          <mxGeometry x="1892.5" y="1475" width="125" height="110" as="geometry" />
        </mxCell>
        <mxCell id="bgoYxC8r8oQt2_E12sds-8" value="&lt;span class=&quot;hljs-variable&quot;&gt;Fetch&lt;/span&gt; &lt;span class=&quot;hljs-variable&quot;&gt;Recipes&lt;/span&gt;" style="rounded=0;whiteSpace=wrap;html=1;" vertex="1" parent="1">
          <mxGeometry x="1775" y="1625" width="170" height="50" as="geometry" />
        </mxCell>
        <mxCell id="bgoYxC8r8oQt2_E12sds-9" value="&lt;span class=&quot;hljs-built_in&quot;&gt;Show&lt;/span&gt; &lt;span class=&quot;hljs-variable&quot;&gt;Error&lt;/span&gt;" style="rounded=0;whiteSpace=wrap;html=1;" vertex="1" parent="1">
          <mxGeometry x="1980" y="1625" width="170" height="50" as="geometry" />
        </mxCell>
        <mxCell id="bgoYxC8r8oQt2_E12sds-10" value="&lt;span class=&quot;hljs-variable&quot;&gt;Click&lt;/span&gt; &lt;span class=&quot;hljs-variable&quot;&gt;on&lt;/span&gt; &lt;span class=&quot;hljs-variable&quot;&gt;Recipe&lt;/span&gt;&lt;span class=&quot;hljs-operator&quot;&gt;?&lt;/span&gt;" style="rhombus;whiteSpace=wrap;html=1;" vertex="1" parent="1">
          <mxGeometry x="1802.5" y="1713" width="115" height="110" as="geometry" />
        </mxCell>
        <mxCell id="bgoYxC8r8oQt2_E12sds-11" value="&lt;span class=&quot;hljs-built_in&quot;&gt;Display&lt;/span&gt; &lt;span class=&quot;hljs-variable&quot;&gt;Recipe&lt;/span&gt;" style="rounded=0;whiteSpace=wrap;html=1;" vertex="1" parent="1">
          <mxGeometry x="1684" y="1860" width="170" height="50" as="geometry" />
        </mxCell>
        <mxCell id="bgoYxC8r8oQt2_E12sds-12" value="&lt;span class=&quot;hljs-built_in&quot;&gt;Show&lt;/span&gt; &lt;span class=&quot;hljs-variable&quot;&gt;Error&lt;/span&gt;" style="rounded=0;whiteSpace=wrap;html=1;" vertex="1" parent="1">
          <mxGeometry x="1901" y="1856" width="170" height="50" as="geometry" />
        </mxCell>
        <mxCell id="bgoYxC8r8oQt2_E12sds-13" value="&lt;span class=&quot;hljs-variable&quot;&gt;Logout&lt;/span&gt;&lt;span class=&quot;hljs-operator&quot;&gt;?&lt;/span&gt;" style="rhombus;whiteSpace=wrap;html=1;" vertex="1" parent="1">
          <mxGeometry x="1723" y="2151" width="80" height="80" as="geometry" />
        </mxCell>
        <mxCell id="bgoYxC8r8oQt2_E12sds-14" value="&lt;span class=&quot;hljs-built_in&quot;&gt;End&lt;/span&gt;" style="ellipse;whiteSpace=wrap;html=1;" vertex="1" parent="1">
          <mxGeometry x="1673" y="2275" width="180" height="65.5" as="geometry" />
        </mxCell>
        <mxCell id="bgoYxC8r8oQt2_E12sds-15" value="&lt;span class=&quot;hljs-variable&quot;&gt;Store&lt;/span&gt; &lt;span class=&quot;hljs-variable&quot;&gt;Search&lt;/span&gt;" style="rounded=0;whiteSpace=wrap;html=1;" vertex="1" parent="1">
          <mxGeometry x="1678" y="1953" width="170" height="50" as="geometry" />
        </mxCell>
        <mxCell id="bgoYxC8r8oQt2_E12sds-16" value="Prediction" style="rounded=0;whiteSpace=wrap;html=1;" vertex="1" parent="1">
          <mxGeometry x="1678" y="2043" width="170" height="50" as="geometry" />
        </mxCell>
        <mxCell id="bgoYxC8r8oQt2_E12sds-19" value="" style="endArrow=none;html=1;rounded=0;entryX=0.524;entryY=0.989;entryDx=0;entryDy=0;entryPerimeter=0;exitX=0.5;exitY=0;exitDx=0;exitDy=0;" edge="1" parent="1" source="bgoYxC8r8oQt2_E12sds-2" target="bgoYxC8r8oQt2_E12sds-1">
          <mxGeometry width="50" height="50" relative="1" as="geometry">
            <mxPoint x="2030" y="1180" as="sourcePoint" />
            <mxPoint x="2080" y="1130" as="targetPoint" />
          </mxGeometry>
        </mxCell>
        <mxCell id="bgoYxC8r8oQt2_E12sds-20" value="" style="endArrow=none;html=1;rounded=0;entryX=0.524;entryY=0.989;entryDx=0;entryDy=0;entryPerimeter=0;exitX=0.5;exitY=0;exitDx=0;exitDy=0;" edge="1" parent="1" source="bgoYxC8r8oQt2_E12sds-3">
          <mxGeometry width="50" height="50" relative="1" as="geometry">
            <mxPoint x="2053.79" y="1161" as="sourcePoint" />
            <mxPoint x="2053.79" y="1130" as="targetPoint" />
          </mxGeometry>
        </mxCell>
        <mxCell id="bgoYxC8r8oQt2_E12sds-21" value="" style="endArrow=none;html=1;rounded=0;entryX=0.5;entryY=1.003;entryDx=0;entryDy=0;entryPerimeter=0;exitX=0.5;exitY=0;exitDx=0;exitDy=0;" edge="1" parent="1" source="bgoYxC8r8oQt2_E12sds-4" target="bgoYxC8r8oQt2_E12sds-3">
          <mxGeometry width="50" height="50" relative="1" as="geometry">
            <mxPoint x="2053.79" y="1340" as="sourcePoint" />
            <mxPoint x="2053.79" y="1309" as="targetPoint" />
            <Array as="points">
              <mxPoint x="1956" y="1266" />
            </Array>
          </mxGeometry>
        </mxCell>
        <mxCell id="bgoYxC8r8oQt2_E12sds-22" value="" style="endArrow=none;html=1;rounded=0;exitX=0.5;exitY=0;exitDx=0;exitDy=0;entryX=0.501;entryY=1.001;entryDx=0;entryDy=0;entryPerimeter=0;" edge="1" parent="1" target="bgoYxC8r8oQt2_E12sds-3" source="bgoYxC8r8oQt2_E12sds-5">
          <mxGeometry width="50" height="50" relative="1" as="geometry">
            <mxPoint x="2180" y="1340" as="sourcePoint" />
            <mxPoint x="2050" y="1310" as="targetPoint" />
            <Array as="points">
              <mxPoint x="2165" y="1266" />
            </Array>
          </mxGeometry>
        </mxCell>
        <mxCell id="bgoYxC8r8oQt2_E12sds-23" value="" style="endArrow=none;html=1;rounded=0;entryX=0.5;entryY=1;entryDx=0;entryDy=0;exitX=0.5;exitY=0;exitDx=0;exitDy=0;" edge="1" parent="1" source="bgoYxC8r8oQt2_E12sds-6" target="bgoYxC8r8oQt2_E12sds-4">
          <mxGeometry width="50" height="50" relative="1" as="geometry">
            <mxPoint x="1954" y="1431" as="sourcePoint" />
            <mxPoint x="1954" y="1400" as="targetPoint" />
          </mxGeometry>
        </mxCell>
        <mxCell id="bgoYxC8r8oQt2_E12sds-24" value="" style="endArrow=none;html=1;rounded=0;entryX=0.5;entryY=1;entryDx=0;entryDy=0;exitX=0.5;exitY=0;exitDx=0;exitDy=0;" edge="1" parent="1" source="bgoYxC8r8oQt2_E12sds-7" target="bgoYxC8r8oQt2_E12sds-6">
          <mxGeometry width="50" height="50" relative="1" as="geometry">
            <mxPoint x="1950" y="1600" as="sourcePoint" />
            <mxPoint x="1957.5" y="1490" as="targetPoint" />
          </mxGeometry>
        </mxCell>
        <mxCell id="bgoYxC8r8oQt2_E12sds-25" value="" style="endArrow=none;html=1;rounded=0;entryX=0.5;entryY=1.003;entryDx=0;entryDy=0;entryPerimeter=0;exitX=0.5;exitY=0;exitDx=0;exitDy=0;" edge="1" parent="1">
          <mxGeometry width="50" height="50" relative="1" as="geometry">
            <mxPoint x="1856" y="1625" as="sourcePoint" />
            <mxPoint x="1955" y="1585" as="targetPoint" />
            <Array as="points">
              <mxPoint x="1856" y="1585" />
            </Array>
          </mxGeometry>
        </mxCell>
        <mxCell id="bgoYxC8r8oQt2_E12sds-26" value="" style="endArrow=none;html=1;rounded=0;entryX=0.501;entryY=1.001;entryDx=0;entryDy=0;entryPerimeter=0;exitX=0.5;exitY=0;exitDx=0;exitDy=0;" edge="1" parent="1" source="bgoYxC8r8oQt2_E12sds-9">
          <mxGeometry width="50" height="50" relative="1" as="geometry">
            <mxPoint x="2082" y="1624" as="sourcePoint" />
            <mxPoint x="1955" y="1585" as="targetPoint" />
            <Array as="points">
              <mxPoint x="2065" y="1586" />
            </Array>
          </mxGeometry>
        </mxCell>
        <mxCell id="bgoYxC8r8oQt2_E12sds-27" value="" style="endArrow=none;html=1;rounded=0;entryX=0.5;entryY=1;entryDx=0;entryDy=0;exitX=0.5;exitY=0;exitDx=0;exitDy=0;" edge="1" parent="1" source="bgoYxC8r8oQt2_E12sds-10" target="bgoYxC8r8oQt2_E12sds-8">
          <mxGeometry width="50" height="50" relative="1" as="geometry">
            <mxPoint x="1859.66" y="1750" as="sourcePoint" />
            <mxPoint x="1860.16" y="1720" as="targetPoint" />
          </mxGeometry>
        </mxCell>
        <mxCell id="bgoYxC8r8oQt2_E12sds-29" value="" style="endArrow=none;html=1;rounded=0;exitX=0.5;exitY=0;exitDx=0;exitDy=0;entryX=0.5;entryY=1;entryDx=0;entryDy=0;" edge="1" parent="1" source="bgoYxC8r8oQt2_E12sds-12" target="bgoYxC8r8oQt2_E12sds-10">
          <mxGeometry width="50" height="50" relative="1" as="geometry">
            <mxPoint x="1990" y="1910" as="sourcePoint" />
            <mxPoint x="1860" y="1870" as="targetPoint" />
            <Array as="points">
              <mxPoint x="1986" y="1824" />
            </Array>
          </mxGeometry>
        </mxCell>
        <mxCell id="bgoYxC8r8oQt2_E12sds-30" value="" style="endArrow=none;html=1;rounded=0;exitX=0.5;exitY=0;exitDx=0;exitDy=0;entryX=0.464;entryY=0.989;entryDx=0;entryDy=0;entryPerimeter=0;" edge="1" parent="1" source="bgoYxC8r8oQt2_E12sds-15" target="bgoYxC8r8oQt2_E12sds-11">
          <mxGeometry width="50" height="50" relative="1" as="geometry">
            <mxPoint x="1784.66" y="2000" as="sourcePoint" />
            <mxPoint x="1766" y="1909" as="targetPoint" />
          </mxGeometry>
        </mxCell>
        <mxCell id="bgoYxC8r8oQt2_E12sds-31" value="" style="endArrow=none;html=1;rounded=0;entryX=0.5;entryY=1;entryDx=0;entryDy=0;exitX=0.5;exitY=0;exitDx=0;exitDy=0;" edge="1" parent="1">
          <mxGeometry width="50" height="50" relative="1" as="geometry">
            <mxPoint x="1762.77" y="2043" as="sourcePoint" />
            <mxPoint x="1762.77" y="2003" as="targetPoint" />
          </mxGeometry>
        </mxCell>
        <mxCell id="bgoYxC8r8oQt2_E12sds-32" value="" style="endArrow=none;html=1;rounded=0;entryX=0.5;entryY=1;entryDx=0;entryDy=0;exitX=0.5;exitY=0;exitDx=0;exitDy=0;" edge="1" parent="1" source="bgoYxC8r8oQt2_E12sds-13" target="bgoYxC8r8oQt2_E12sds-16">
          <mxGeometry width="50" height="50" relative="1" as="geometry">
            <mxPoint x="1784.8000000000002" y="2180" as="sourcePoint" />
            <mxPoint x="1784.8000000000002" y="2140" as="targetPoint" />
          </mxGeometry>
        </mxCell>
        <mxCell id="bgoYxC8r8oQt2_E12sds-35" value="" style="endArrow=none;html=1;rounded=0;entryX=0.5;entryY=1;entryDx=0;entryDy=0;" edge="1" parent="1" target="bgoYxC8r8oQt2_E12sds-13" source="bgoYxC8r8oQt2_E12sds-14">
          <mxGeometry width="50" height="50" relative="1" as="geometry">
            <mxPoint x="1685" y="2400" as="sourcePoint" />
            <mxPoint x="1685" y="2360" as="targetPoint" />
          </mxGeometry>
        </mxCell>
        <mxCell id="bgoYxC8r8oQt2_E12sds-36" value="yes" style="text;html=1;align=center;verticalAlign=middle;resizable=0;points=[];autosize=1;strokeColor=none;fillColor=none;" vertex="1" parent="1">
          <mxGeometry x="1915" y="1270" width="40" height="30" as="geometry" />
        </mxCell>
        <mxCell id="bgoYxC8r8oQt2_E12sds-37" value="no" style="text;html=1;align=center;verticalAlign=middle;resizable=0;points=[];autosize=1;strokeColor=none;fillColor=none;" vertex="1" parent="1">
          <mxGeometry x="2160" y="1274" width="40" height="30" as="geometry" />
        </mxCell>
        <mxCell id="bgoYxC8r8oQt2_E12sds-38" value="&lt;span style=&quot;color: rgb(0, 0, 0); font-family: Helvetica; font-size: 12px; font-style: normal; font-variant-ligatures: normal; font-variant-caps: normal; font-weight: 400; letter-spacing: normal; orphans: 2; text-align: center; text-indent: 0px; text-transform: none; widows: 2; word-spacing: 0px; -webkit-text-stroke-width: 0px; white-space: nowrap; background-color: rgb(255, 255, 255); text-decoration-thickness: initial; text-decoration-style: initial; text-decoration-color: initial; display: inline !important; float: none;&quot;&gt;yes&lt;/span&gt;" style="text;whiteSpace=wrap;html=1;" vertex="1" parent="1">
          <mxGeometry x="1825" y="1601" width="50" height="40" as="geometry" />
        </mxCell>
        <mxCell id="bgoYxC8r8oQt2_E12sds-39" value="&lt;span style=&quot;color: rgb(0, 0, 0); font-family: Helvetica; font-size: 12px; font-style: normal; font-variant-ligatures: normal; font-variant-caps: normal; font-weight: 400; letter-spacing: normal; orphans: 2; text-align: center; text-indent: 0px; text-transform: none; widows: 2; word-spacing: 0px; -webkit-text-stroke-width: 0px; white-space: nowrap; background-color: rgb(255, 255, 255); text-decoration-thickness: initial; text-decoration-style: initial; text-decoration-color: initial; display: inline !important; float: none;&quot;&gt;yes&lt;/span&gt;" style="text;whiteSpace=wrap;html=1;" vertex="1" parent="1">
          <mxGeometry x="1725" y="1835" width="50" height="40" as="geometry" />
        </mxCell>
        <mxCell id="bgoYxC8r8oQt2_E12sds-41" value="no" style="text;html=1;align=center;verticalAlign=middle;resizable=0;points=[];autosize=1;strokeColor=none;fillColor=none;" vertex="1" parent="1">
          <mxGeometry x="2054" y="1603" width="40" height="30" as="geometry" />
        </mxCell>
        <mxCell id="bgoYxC8r8oQt2_E12sds-42" value="no" style="text;html=1;align=center;verticalAlign=middle;resizable=0;points=[];autosize=1;strokeColor=none;fillColor=none;" vertex="1" parent="1">
          <mxGeometry x="1980" y="1831" width="40" height="30" as="geometry" />
        </mxCell>
        <mxCell id="bgoYxC8r8oQt2_E12sds-44" value="" style="endArrow=none;html=1;rounded=0;exitX=0.423;exitY=0.004;exitDx=0;exitDy=0;entryX=0.5;entryY=1;entryDx=0;entryDy=0;exitPerimeter=0;" edge="1" parent="1" source="bgoYxC8r8oQt2_E12sds-11" target="bgoYxC8r8oQt2_E12sds-10">
          <mxGeometry width="50" height="50" relative="1" as="geometry">
            <mxPoint x="2000" y="1920" as="sourcePoint" />
            <mxPoint x="1870" y="1833" as="targetPoint" />
            <Array as="points">
              <mxPoint x="1756" y="1823" />
            </Array>
          </mxGeometry>
        </mxCell>
      </root>
    </mxGraphModel>
  </diagram>
</mxfile>
